<mxfile host="65bd71144e">
    <diagram id="1DJsyHfENknAzVMPzuvP" name="Page-1">
        <mxGraphModel dx="1000" dy="598" grid="1" gridSize="10" guides="1" tooltips="1" connect="1" arrows="1" fold="1" page="1" pageScale="1" pageWidth="850" pageHeight="1100" math="0" shadow="0">
            <root>
                <mxCell id="0"/>
                <mxCell id="1" parent="0"/>
                <mxCell id="tMey6f2gLSL-5DYh75RB-6" value="" style="edgeStyle=orthogonalEdgeStyle;rounded=0;orthogonalLoop=1;jettySize=auto;html=1;" parent="1" source="tMey6f2gLSL-5DYh75RB-1" target="tMey6f2gLSL-5DYh75RB-5" edge="1">
                    <mxGeometry relative="1" as="geometry"/>
                </mxCell>
                <mxCell id="tMey6f2gLSL-5DYh75RB-10" style="edgeStyle=orthogonalEdgeStyle;rounded=0;orthogonalLoop=1;jettySize=auto;html=1;entryX=1;entryY=0.5;entryDx=0;entryDy=0;" parent="1" source="tMey6f2gLSL-5DYh75RB-1" target="tMey6f2gLSL-5DYh75RB-3" edge="1">
                    <mxGeometry relative="1" as="geometry"/>
                </mxCell>
                <mxCell id="tMey6f2gLSL-5DYh75RB-1" value="App.vue" style="rounded=1;whiteSpace=wrap;html=1;" parent="1" vertex="1">
                    <mxGeometry x="365" y="30" width="120" height="60" as="geometry"/>
                </mxCell>
                <mxCell id="4" style="edgeStyle=orthogonalEdgeStyle;rounded=0;orthogonalLoop=1;jettySize=auto;html=1;entryX=0.417;entryY=-0.033;entryDx=0;entryDy=0;entryPerimeter=0;" edge="1" parent="1" source="tMey6f2gLSL-5DYh75RB-3" target="2">
                    <mxGeometry relative="1" as="geometry"/>
                </mxCell>
                <mxCell id="tMey6f2gLSL-5DYh75RB-3" value="NavBar.vue" style="rounded=0;whiteSpace=wrap;html=1;" parent="1" vertex="1">
                    <mxGeometry x="10" y="30" width="120" height="60" as="geometry"/>
                </mxCell>
                <mxCell id="tMey6f2gLSL-5DYh75RB-9" style="edgeStyle=orthogonalEdgeStyle;rounded=0;orthogonalLoop=1;jettySize=auto;html=1;" parent="1" source="tMey6f2gLSL-5DYh75RB-5" target="tMey6f2gLSL-5DYh75RB-7" edge="1">
                    <mxGeometry relative="1" as="geometry"/>
                </mxCell>
                <mxCell id="tMey6f2gLSL-5DYh75RB-11" style="edgeStyle=orthogonalEdgeStyle;rounded=0;orthogonalLoop=1;jettySize=auto;html=1;entryX=0.5;entryY=0;entryDx=0;entryDy=0;" parent="1" source="tMey6f2gLSL-5DYh75RB-5" target="tMey6f2gLSL-5DYh75RB-8" edge="1">
                    <mxGeometry relative="1" as="geometry"/>
                </mxCell>
                <mxCell id="tMey6f2gLSL-5DYh75RB-13" style="edgeStyle=orthogonalEdgeStyle;rounded=0;orthogonalLoop=1;jettySize=auto;html=1;entryX=0.5;entryY=0;entryDx=0;entryDy=0;" parent="1" source="tMey6f2gLSL-5DYh75RB-5" target="tMey6f2gLSL-5DYh75RB-12" edge="1">
                    <mxGeometry relative="1" as="geometry"/>
                </mxCell>
                <mxCell id="3" style="edgeStyle=orthogonalEdgeStyle;rounded=0;orthogonalLoop=1;jettySize=auto;html=1;" edge="1" parent="1" source="tMey6f2gLSL-5DYh75RB-5">
                    <mxGeometry relative="1" as="geometry">
                        <mxPoint x="80" y="240" as="targetPoint"/>
                    </mxGeometry>
                </mxCell>
                <mxCell id="tMey6f2gLSL-5DYh75RB-5" value="router/index.js" style="rounded=1;whiteSpace=wrap;html=1;" parent="1" vertex="1">
                    <mxGeometry x="365" y="140" width="120" height="60" as="geometry"/>
                </mxCell>
                <mxCell id="tMey6f2gLSL-5DYh75RB-7" value="Login.vue" style="rounded=1;whiteSpace=wrap;html=1;" parent="1" vertex="1">
                    <mxGeometry x="180" y="250" width="120" height="60" as="geometry"/>
                </mxCell>
                <mxCell id="tMey6f2gLSL-5DYh75RB-8" value="Signup.vue" style="rounded=1;whiteSpace=wrap;html=1;" parent="1" vertex="1">
                    <mxGeometry x="320" y="250" width="120" height="60" as="geometry"/>
                </mxCell>
                <mxCell id="tMey6f2gLSL-5DYh75RB-15" value="" style="edgeStyle=orthogonalEdgeStyle;rounded=0;orthogonalLoop=1;jettySize=auto;html=1;" parent="1" source="tMey6f2gLSL-5DYh75RB-12" target="tMey6f2gLSL-5DYh75RB-14" edge="1">
                    <mxGeometry relative="1" as="geometry"/>
                </mxCell>
                <mxCell id="tMey6f2gLSL-5DYh75RB-19" style="edgeStyle=orthogonalEdgeStyle;rounded=0;orthogonalLoop=1;jettySize=auto;html=1;" parent="1" source="tMey6f2gLSL-5DYh75RB-12" target="tMey6f2gLSL-5DYh75RB-18" edge="1">
                    <mxGeometry relative="1" as="geometry"/>
                </mxCell>
                <mxCell id="tMey6f2gLSL-5DYh75RB-22" style="edgeStyle=orthogonalEdgeStyle;rounded=0;orthogonalLoop=1;jettySize=auto;html=1;" parent="1" source="tMey6f2gLSL-5DYh75RB-12" target="tMey6f2gLSL-5DYh75RB-20" edge="1">
                    <mxGeometry relative="1" as="geometry"/>
                </mxCell>
                <mxCell id="tMey6f2gLSL-5DYh75RB-12" value="Home.vue" style="rounded=1;whiteSpace=wrap;html=1;" parent="1" vertex="1">
                    <mxGeometry x="550" y="250" width="120" height="60" as="geometry"/>
                </mxCell>
                <mxCell id="tMey6f2gLSL-5DYh75RB-17" style="edgeStyle=orthogonalEdgeStyle;rounded=0;orthogonalLoop=1;jettySize=auto;html=1;entryX=0.5;entryY=0;entryDx=0;entryDy=0;" parent="1" source="tMey6f2gLSL-5DYh75RB-14" target="tMey6f2gLSL-5DYh75RB-16" edge="1">
                    <mxGeometry relative="1" as="geometry"/>
                </mxCell>
                <mxCell id="tMey6f2gLSL-5DYh75RB-14" value="ListView.vue" style="rounded=1;whiteSpace=wrap;html=1;" parent="1" vertex="1">
                    <mxGeometry x="550" y="350" width="120" height="60" as="geometry"/>
                </mxCell>
                <mxCell id="tMey6f2gLSL-5DYh75RB-16" value="EditListing.vue" style="rounded=1;whiteSpace=wrap;html=1;" parent="1" vertex="1">
                    <mxGeometry x="550" y="450" width="120" height="60" as="geometry"/>
                </mxCell>
                <mxCell id="tMey6f2gLSL-5DYh75RB-18" value="AddView.vue" style="rounded=1;whiteSpace=wrap;html=1;" parent="1" vertex="1">
                    <mxGeometry x="700" y="350" width="120" height="60" as="geometry"/>
                </mxCell>
                <mxCell id="tMey6f2gLSL-5DYh75RB-20" value="UI/SearchBar.vue" style="rounded=1;whiteSpace=wrap;html=1;" parent="1" vertex="1">
                    <mxGeometry x="410" y="350" width="120" height="60" as="geometry"/>
                </mxCell>
                <mxCell id="2" value="UploadCsv.vue" style="rounded=1;whiteSpace=wrap;html=1;" vertex="1" parent="1">
                    <mxGeometry x="20" y="250" width="120" height="60" as="geometry"/>
                </mxCell>
            </root>
        </mxGraphModel>
    </diagram>
</mxfile>